<?xml version="1.0" encoding="UTF-8" standalone="no" ?>
<!DOCTYPE svg PUBLIC "-//W3C//DTD SVG 1.1//EN" "http://www.w3.org/Graphics/SVG/1.1/DTD/svg11.dtd">
<svg xmlns="http://www.w3.org/2000/svg" xmlns:xlink="http://www.w3.org/1999/xlink" version="1.1" width="100" height="100" viewBox="0 0 100 100" xml:space="preserve">
<desc>Created with Fabric.js 4.2.0</desc>
<defs>
</defs>
<rect x="0" y="0" width="100%" height="100%" fill="transparent"></rect>
<g transform="matrix(0 0 0 0 0 0)" id="05f21735-d0d6-4539-9e8a-69a9cf645d4e"  >
</g>
<g transform="matrix(1 0 0 1 50 50)" id="32761498-b92a-4748-b8c8-2b6321c5b207"  >
<rect style="stroke: none; stroke-width: 1; stroke-dasharray: none; stroke-linecap: butt; stroke-dashoffset: 0; stroke-linejoin: miter; stroke-miterlimit: 4; fill: rgb(255,255,255); fill-opacity: 0; fill-rule: nonzero; opacity: 1;" vector-effect="non-scaling-stroke"  x="-50" y="-50" rx="0" ry="0" width="100" height="100" />
</g>
<g transform="matrix(0.47 0 0 0.47 50.02 50.02)"  >
<path style="stroke: rgb(42,204,212); stroke-width: 0; stroke-dasharray: none; stroke-linecap: butt; stroke-dashoffset: 0; stroke-linejoin: miter; stroke-miterlimit: 4; fill: rgb(255,255,255); fill-rule: nonzero; opacity: 1;" vector-effect="non-scaling-stroke"  transform=" translate(-50, -50)" d="M 50 92.875 C 26.358 92.875 7.125 73.642 7.125 50 C 7.125 26.358000000000004 26.358 7.125 50 7.125 C 73.642 7.125 92.875 26.358 92.875 50 C 92.875 73.642 73.642 92.875 50 92.875 z M 50 9.125 C 27.461 9.125 9.125 27.461 9.125 50 C 9.125 72.538 27.461 90.875 50 90.875 C 72.538 90.875 90.875 72.538 90.875 50 C 90.875 27.461 72.538 9.125 50 9.125 z" stroke-linecap="round" />
</g>
<g transform="matrix(1 0 0 1 50 50.56)" style="" id="c7df5b1c-2782-4b8a-88ba-68a463cd9a6f"  >
		<text xml:space="preserve" font-family="Lato" font-size="29" font-style="normal" font-weight="400" style="stroke: none; stroke-width: 1; stroke-dasharray: none; stroke-linecap: butt; stroke-dashoffset: 0; stroke-linejoin: miter; stroke-miterlimit: 4; fill: rgb(0,0,0); fill-rule: nonzero; opacity: 1; white-space: pre;" ><tspan x="-14.12" y="9.11" >JS</tspan></text>
</g>
</svg>